Coordinates
version=1
nRows=33
nColumns=30
inDegrees=yes

Units are S.I. units (second, meters, Newtons, ...)
Angles are in degrees.

endheader
time	floatyaw	floatroll	floatpitch	floatx	floaty	floatz	pro_sup_l	deviation_l	flexion_l	cmc_flexion_l	cmc_abduction_l	mp_flexion_l	ip_flexion_l	2mcp_flexion_l	2mcp_abduction_l	2pm_flexion_l	2md_flexion_l	3mcp_flexion_l	3mcp_abduction_l	3pm_flexion_l	3md_flexion_l	4mcp_flexion_l	4mcp_abduction_l	4pm_flexion_l	4md_flexion_l	5mcp_flexion_l	5mcp_abduction_l	5pm_flexion_l	5md_flexion_l
-0.495000	-2.367547	-3.808797	97.590660	-0.101171	-0.188584	-0.033404	86.372854	2.302677	-2.078207	12.543982	6.109284	-22.523642	-34.621598	40.003625	10.011576	47.964186	32.865028	23.842016	5.506482	47.014833	32.565730	13.082641	-4.880911	61.599260	42.261842	7.026934	-10.307441	61.591666	41.715191
-0.485000	-2.367547	-3.808797	97.590660	-0.101133	-0.188513	-0.033336	86.374475	2.288349	-2.072488	12.495534	6.083326	-22.523961	-34.605311	40.021588	9.944507	47.992091	32.866590	23.920983	5.505193	47.032315	32.561888	13.136891	-4.872945	61.606596	42.251700	7.035520	-10.262668	61.577243	41.706223
-0.475000	-2.367547	-3.808797	97.590660	-0.101072	-0.188433	-0.033247	86.362521	2.272631	-2.076003	12.445893	6.067501	-22.532202	-34.596754	40.035227	9.884913	48.022105	32.869648	23.996420	5.505089	47.053519	32.561507	13.192368	-4.868037	61.612926	42.240790	7.044621	-10.215318	61.572519	41.706787
-0.465000	-2.367547	-3.808797	97.590660	-0.100990	-0.188341	-0.033138	86.339439	2.261039	-2.088152	12.397928	6.069138	-22.547734	-34.596524	40.039990	9.833663	48.046838	32.870998	24.052156	5.508131	47.072295	32.563246	13.237144	-4.865489	61.613777	42.228761	7.063425	-10.176889	61.579361	41.713960
-0.455000	-2.367547	-3.808797	97.590660	-0.100886	-0.188232	-0.033012	86.312498	2.259326	-2.107476	12.354648	6.090442	-22.568928	-34.603853	40.034421	9.787639	48.062650	32.868762	24.079531	5.515171	47.084128	32.565212	13.262933	-4.864327	61.608093	42.216219	7.093232	-10.153138	61.596303	41.722716
-0.445000	-2.367547	-3.808797	97.590660	-0.100758	-0.188098	-0.032870	86.289539	2.271012	-2.132809	12.317071	6.126319	-22.594111	-34.616968	40.020815	9.741891	48.070425	32.862830	24.080175	5.525776	47.089040	32.566350	13.268575	-4.863812	61.599591	42.204830	7.126662	-10.142262	61.617062	41.727423
-0.435000	-2.367547	-3.808797	97.590660	-0.100605	-0.187931	-0.032711	86.274415	2.295899	-2.164577	12.282742	6.166606	-22.622096	-34.633493	40.003675	9.692895	48.074654	32.854777	24.064079	5.538712	47.092716	32.567656	13.260589	-4.863598	61.595993	42.196894	7.153263	-10.137781	61.632914	41.723901
-0.425000	-2.367547	-3.808797	97.590660	-0.100422	-0.187728	-0.032536	86.265526	2.330548	-2.205701	12.246585	6.201430	-22.651745	-34.650667	39.987645	9.640975	48.081251	32.847147	24.044427	5.552640	47.104497	32.572164	13.250294	-4.863401	61.605876	42.194385	7.167074	-10.133689	61.637922	41.711232
-0.415000	-2.367547	-3.808797	97.590660	-0.100208	-0.187492	-0.032346	86.259003	2.370542	-2.261472	12.204307	6.226445	-22.680845	-34.665501	39.976171	9.590363	48.094492	32.842016	24.032131	5.566565	47.132294	32.583162	13.248779	-4.862551	61.633818	42.197627	7.170268	-10.128006	61.633467	41.692422
-0.405000	-2.367547	-3.808797	97.590660	-0.099961	-0.187229	-0.032143	86.254599	2.413093	-2.337677	12.156598	6.245395	-22.705285	-34.675213	39.970387	9.546975	48.114029	32.839323	24.032443	5.579882	47.176675	32.601388	13.261957	-4.859966	61.675730	42.204064	7.170569	-10.122609	61.628462	41.673334
-0.395000	-2.367547	-3.808797	97.590660	-0.099684	-0.186951	-0.031934	86.259920	2.457990	-2.437001	12.111270	6.269245	-22.719467	-34.678080	39.967397	9.515321	48.133635	32.836134	24.044386	5.592101	47.227666	32.622971	13.287785	-4.854631	61.717106	42.207947	7.175205	-10.120405	61.634000	41.659890
-0.385000	-2.367547	-3.808797	97.590660	-0.099379	-0.186664	-0.031725	86.289293	2.505880	-2.555040	12.081341	6.312170	-22.718125	-34.674341	39.958584	9.496231	48.143100	32.827733	24.062430	5.602437	47.266978	32.639714	13.316731	-4.846057	61.736472	42.201721	7.186273	-10.122504	61.654826	41.654442
-0.375000	-2.367547	-3.808797	97.590660	-0.099049	-0.186374	-0.031516	86.357176	2.555049	-2.678396	12.079442	6.385248	-22.698839	-34.666635	39.930421	9.486310	48.132942	32.810163	24.079464	5.609497	47.275454	32.641906	13.335475	-4.834255	61.714090	42.179084	7.200395	-10.127246	61.683049	41.653273
-0.365000	-2.367547	-3.808797	97.590660	-0.098697	-0.186086	-0.031307	86.469778	2.599432	-2.786838	12.111070	6.490029	-22.664079	-34.659618	39.869996	9.479273	48.099687	32.782678	24.090185	5.611395	47.242340	32.622386	13.332741	-4.819443	61.642769	42.138564	7.211924	-10.130977	61.699469	41.647299
-0.355000	-2.367547	-3.808797	97.590660	-0.098324	-0.185811	-0.031091	86.619547	2.630147	-2.859273	12.169770	6.615682	-22.621747	-34.658831	39.774754	9.468602	48.048972	32.748581	24.093928	5.606634	47.171840	32.580131	13.305227	-4.802130	61.535460	42.085799	7.217035	-10.129601	61.683742	41.626569
-0.345000	-2.367547	-3.808797	97.590660	-0.097927	-0.185566	-0.030866	86.785158	2.640307	-2.880628	12.236026	6.742773	-22.583711	-34.669076	39.662090	9.450418	47.994975	32.714071	24.095676	5.595733	47.084008	32.522432	13.261212	-4.783807	61.424912	42.033135	7.216763	-10.120603	61.628393	41.586556
-0.335000	-2.367547	-3.808797	97.590660	-0.097505	-0.185371	-0.030632	86.936842	2.630326	-2.845855	12.280017	6.853195	-22.562388	-34.692557	39.572135	9.425272	47.956371	32.685870	24.104133	5.582981	47.010065	32.465510	13.220015	-4.767620	61.354032	41.996376	7.218717	-10.105927	61.547995	41.532450
-0.325000	-2.367547	-3.808797	97.590660	-0.097055	-0.185235	-0.030394	87.045720	2.610179	-2.759010	12.267716	6.941769	-22.566018	-34.727226	39.558405	9.397945	47.950059	32.668759	24.126990	5.577015	46.984257	32.433350	13.206857	-4.758075	61.359936	41.989788	7.237392	-10.095178	61.476633	41.478287
-0.315000	-2.367547	-3.808797	97.590660	-0.096584	-0.185147	-0.030164	87.095677	2.596480	-2.628213	12.169839	7.023506	-22.594202	-34.766215	39.666616	9.375448	47.984378	32.663837	24.165617	5.588962	47.034508	32.453670	13.244328	-4.759416	61.458311	42.021318	7.291879	-10.106589	61.453478	41.440742
-0.305000	-2.367547	-3.808797	97.590660	-0.096108	-0.185072	-0.029953	87.095253	2.604886	-2.459026	11.972221	7.132562	-22.635963	-34.799482	39.909747	9.364243	48.054156	32.667996	24.212817	5.627937	47.173615	32.550057	13.343211	-4.773225	61.635871	42.090216	7.399946	-10.163013	61.504128	41.431022
-0.295000	-2.367547	-3.808797	97.590660	-0.095646	-0.184948	-0.029759	87.084409	2.640841	-2.249057	11.684202	7.313101	-22.671873	-34.817684	40.252283	9.367742	48.140542	32.675118	24.256013	5.695468	47.393071	32.731598	13.496338	-4.796363	61.855766	42.188290	7.570218	-10.283251	61.629478	41.450188
-0.285000	-2.367547	-3.808797	97.590660	-0.095201	-0.184698	-0.029556	87.129746	2.693104	-1.986148	11.340757	7.606040	-22.679681	-34.816561	40.613425	9.384220	48.217137	32.679057	24.284564	5.781669	47.661760	32.984148	13.678965	-4.820332	62.073233	42.303678	7.796522	-10.472701	61.809463	41.491167
-0.275000	-2.367547	-3.808797	97.590660	-0.094747	-0.184235	-0.029290	87.305537	2.733943	-1.651580	10.996661	8.036121	-22.641254	-34.799286	40.888928	9.404658	48.259707	32.677046	24.296697	5.865402	47.929964	33.268049	13.857072	-4.832728	62.250578	42.423709	8.056953	-10.717157	62.016957	41.545197
-0.265000	-2.367547	-3.808797	97.590660	-0.094214	-0.183475	-0.028885	87.665908	2.727191	-1.228022	10.715483	8.601509	-22.548700	-34.775603	40.981203	9.410380	48.253045	32.671058	24.302054	5.918869	48.136855	33.524665	14.001521	-4.820968	62.359902	42.534064	8.316659	-10.980157	62.226804	41.605959
-0.255000	-2.367547	-3.808797	97.590660	-0.093493	-0.182342	-0.028250	88.220005	2.641900	-0.710110	10.558198	9.267220	-22.408319	-34.758595	40.825103	9.371643	48.190539	32.665769	24.319684	5.915234	48.220121	33.690514	14.103079	-4.777415	62.372614	42.615468	8.533731	-11.203088	62.408617	41.666175
-0.245000	-2.367547	-3.808797	97.590660	-0.092453	-0.180765	-0.027294	88.922178	2.467555	-0.115440	10.573789	9.966284	-22.241139	-34.760919	40.402193	9.249497	48.069315	32.664806	24.374659	5.837187	48.128747	33.715009	14.182409	-4.703655	62.248770	42.643117	8.672205	-11.311364	62.508959	41.708737
-0.235000	-2.367547	-3.808797	97.590660	-0.090957	-0.178683	-0.025943	89.683514	2.227377	0.504833	10.790527	10.614488	-22.078753	-34.791651	39.743099	9.003314	47.889027	32.668780	24.495910	5.684373	47.839765	33.576583	14.289688	-4.611074	61.943264	42.593549	8.726325	-11.233399	62.443464	41.700877
-0.225000	-2.367547	-3.808797	97.590660	-0.088877	-0.176047	-0.024143	90.402912	1.987005	1.056380	11.206564	11.140752	-21.954522	-34.853949	38.920433	8.604627	47.659252	32.676993	24.713793	5.477482	47.375759	33.292256	14.490286	-4.516317	61.435239	42.458339	8.748863	-10.933585	62.117672	41.599772
-0.215000	-2.367547	-3.808797	97.590660	-0.086090	-0.172820	-0.021867	91.008174	1.854704	1.396648	11.782892	11.526128	-21.892249	-34.943630	38.033724	8.053764	47.411626	32.691092	25.052865	5.256629	46.815209	32.917365	14.836650	-4.433205	60.768809	42.257256	8.860623	-10.446556	61.477254	41.371329
-0.205000	-2.367547	-3.808797	97.590660	-0.082485	-0.168987	-0.019113	91.492424	1.967416	1.342633	12.446739	11.835684	-21.895706	-35.049174	37.185609	7.390899	47.206071	32.716731	25.517194	5.072220	46.285177	32.533735	15.332979	-4.365158	60.078397	42.039953	9.216068	-9.889128	60.565186	41.014774
-0.195000	-2.367547	-3.808797	97.590660	-0.077958	-0.164557	-0.015904	91.931036	2.458649	0.700804	13.113126	12.224356	-21.942437	-35.153861	36.448902	6.691848	47.120625	32.760197	26.071674	4.969267	45.927741	32.225925	15.906873	-4.302347	59.569174	41.868019	9.922279	-9.431059	59.548116	40.578509
-0.185000	-2.367547	-3.808797	97.590660	-0.072431	-0.159562	-0.012277	92.470672	3.412308	-0.678749	13.723708	12.904086	-21.984833	-35.240336	35.829173	6.044740	47.221221	32.820053	26.628705	4.970008	45.841346	32.048594	16.406349	-4.225512	59.438671	41.779186	10.944901	-9.227514	58.678120	40.152192
-0.175000	-2.367547	-3.808797	97.590660	-0.065873	-0.154070	-0.008279	93.292926	4.817952	-2.836160	14.287867	14.075932	-21.960398	-35.297455	35.236621	5.514989	47.519278	32.877703	27.051015	5.062365	46.016367	31.995132	16.635421	-4.115065	59.759570	41.749313	12.058539	-9.342210	58.186139	39.830064
